<?xml version="1.0" standalone="no"?>
<!DOCTYPE svg PUBLIC "-//W3C//DTD SVG 20010904//EN"
 "http://www.w3.org/TR/2001/REC-SVG-20010904/DTD/svg10.dtd">
<svg version="1.0" xmlns="http://www.w3.org/2000/svg"
 width="3276.000000pt" height="3276.000000pt" viewBox="0 0 3276.000000 3276.000000"
 preserveAspectRatio="xMidYMid meet">
<metadata>
Created by potrace 1.14, written by Peter Selinger 2001-2017
</metadata>
<g transform="translate(0.000000,3276.000000) scale(0.100000,-0.100000)"
fill="#000000" stroke="none">
<path d="M8195 24575 c-4502 -4502 -8185 -8189 -8185 -8193 0 -13 16357
-16367 16370 -16367 6 0 3694 3683 8195 8183 l8183 8184 -8189 8189 -8189
8189 -8185 -8185z m9271 2695 c593 -594 1078 -1084 1077 -1088 -1 -5 -1314
-1322 -2917 -2927 -1604 -1605 -2916 -2923 -2916 -2929 0 -6 -885 -895 -1965
-1975 -1081 -1081 -1965 -1967 -1965 -1970 0 -3 1229 -1234 2730 -2735 2300
-2300 2728 -2732 2717 -2744 -6 -8 -497 -501 -1091 -1094 l-1078 -1080 -3824
3824 c-2103 2103 -3822 3827 -3821 3831 4 14 11951 11964 11963 11966 5 0 496
-485 1090 -1079z m7079 -7079 c2093 -2093 3805 -3807 3805 -3810 0 -3 -2694
-2699 -5985 -5990 l-5985 -5985 -1091 1091 -1091 1092 2968 2971 c1633 1634
3834 3836 4891 4893 1057 1057 1923 1925 1923 1928 0 3 -1219 1224 -2710 2715
-1490 1490 -2710 2712 -2710 2716 0 6 2173 2186 2177 2184 2 -1 1715 -1713
3808 -3805z m-6529 -2181 c893 -893 1624 -1626 1624 -1629 0 -3 -734 -739
-1630 -1635 l-1630 -1630 -1630 1630 c-896 896 -1630 1632 -1630 1635 0 3 397
401 882 885 485 483 1218 1215 1628 1625 410 410 749 745 753 745 5 -1 739
-732 1633 -1626z"/>
</g>
</svg>
